HIERARCHY
ROOT Hips
{
	OFFSET 0 0 0
	CHANNELS 6 Xposition Yposition Zposition Yrotation Xrotation Zrotation
	JOINT Spine
	{
		OFFSET -0 7.96124 -2.53765
		CHANNELS 3 Yrotation Xrotation Zrotation
		JOINT Spine1
		{
			OFFSET -0 8.14037 0
			CHANNELS 3 Yrotation Xrotation Zrotation
			JOINT Spine2
			{
				OFFSET -0 8.14037 0
				CHANNELS 3 Yrotation Xrotation Zrotation
				JOINT Spine3
				{
					OFFSET -0 8.14037 0
					CHANNELS 3 Yrotation Xrotation Zrotation
					JOINT Neck
					{
						OFFSET -0 14.0192 3.53765
						CHANNELS 3 Yrotation Xrotation Zrotation
						JOINT Head
						{
							OFFSET -0 9.95155 0
							CHANNELS 3 Yrotation Xrotation Zrotation
							End Site
							{
								OFFSET 0 15 0
							}
						}
					}
					JOINT LeftShoulder
					{
						OFFSET 1.65859 2.44779 3.31718
						CHANNELS 3 Yrotation Xrotation Zrotation
						JOINT LeftArm
						{
							OFFSET 18.8215 0 0
							CHANNELS 3 Yrotation Xrotation Zrotation
							JOINT LeftForeArm
							{
								OFFSET 24.369 0 0
								CHANNELS 3 Yrotation Xrotation Zrotation
								JOINT LeftHand
								{
									OFFSET 20.693 0 0
									CHANNELS 3 Yrotation Xrotation Zrotation
									JOINT LeftHandThumb1
									{
										OFFSET 4.77279 0 2.93781
										CHANNELS 3 Yrotation Xrotation Zrotation
										JOINT LeftHandThumb2
										{
											OFFSET 3 0 1
											CHANNELS 3 Yrotation Xrotation Zrotation
											JOINT LeftHandThumb3
											{
												OFFSET 2.1 0 0
												CHANNELS 3 Yrotation Xrotation Zrotation
												JOINT LeftHandThumb4
												{
													OFFSET 1.305 0 0
													CHANNELS 3 Yrotation Xrotation Zrotation
													End Site
													{
														OFFSET -0 0 0
													}
												}
											}
										}
									}
									JOINT LeftHandIndex1
									{
										OFFSET 8.85787 0 3.70426
										CHANNELS 3 Yrotation Xrotation Zrotation
										JOINT LeftHandIndex2
										{
											OFFSET 3.5 0 0
											CHANNELS 3 Yrotation Xrotation Zrotation
											JOINT LeftHandIndex3
											{
												OFFSET 2.45 0 0
												CHANNELS 3 Yrotation Xrotation Zrotation
												JOINT LeftHandIndex4
												{
													OFFSET 1.5225 0 0
													CHANNELS 3 Yrotation Xrotation Zrotation
													End Site
													{
														OFFSET -0 0 0
													}
												}
											}
										}
									}
									JOINT LeftHandMiddle1
									{
										OFFSET 8.9513 0 1.15177
										CHANNELS 3 Yrotation Xrotation Zrotation
										JOINT LeftHandMiddle2
										{
											OFFSET 4.6 0 0
											CHANNELS 3 Yrotation Xrotation Zrotation
											JOINT LeftHandMiddle3
											{
												OFFSET 3.22 0 0
												CHANNELS 3 Yrotation Xrotation Zrotation
												JOINT LeftHandMiddle4
												{
													OFFSET 2.001 0 0
													CHANNELS 3 Yrotation Xrotation Zrotation
													End Site
													{
														OFFSET -0 0 0
													}
												}
											}
										}
									}
									JOINT LeftHandRing1
									{
										OFFSET 8.74474 0 -1.40072
										CHANNELS 3 Yrotation Xrotation Zrotation
										JOINT LeftHandRing2
										{
											OFFSET 3.75 0 0
											CHANNELS 3 Yrotation Xrotation Zrotation
											JOINT LeftHandRing3
											{
												OFFSET 2.625 0 0
												CHANNELS 3 Yrotation Xrotation Zrotation
												JOINT LeftHandRing4
												{
													OFFSET 1.63125 0 0
													CHANNELS 3 Yrotation Xrotation Zrotation
													End Site
													{
														OFFSET -0 0 0
													}
												}
											}
										}
									}
									JOINT LeftHandPinky1
									{
										OFFSET 8.23817 0 -3.95321
										CHANNELS 3 Yrotation Xrotation Zrotation
										JOINT LeftHandPinky2
										{
											OFFSET 2.875 0 0
											CHANNELS 3 Yrotation Xrotation Zrotation
											JOINT LeftHandPinky3
											{
												OFFSET 2.0125 0 0
												CHANNELS 3 Yrotation Xrotation Zrotation
												JOINT LeftHandPinky4
												{
													OFFSET 1.25062 0 0
													CHANNELS 3 Yrotation Xrotation Zrotation
													End Site
													{
														OFFSET -0 0 0
													}
												}
											}
										}
									}
								}
							}
						}
					}
					JOINT RightShoulder
					{
						OFFSET -1.65859 2.44779 3.31718
						CHANNELS 3 Yrotation Xrotation Zrotation
						JOINT RightArm
						{
							OFFSET -18.8215 0 0
							CHANNELS 3 Yrotation Xrotation Zrotation
							JOINT RightForeArm
							{
								OFFSET -24.369 0 0
								CHANNELS 3 Yrotation Xrotation Zrotation
								JOINT RightHand
								{
									OFFSET -20.693 0 0
									CHANNELS 3 Yrotation Xrotation Zrotation
									JOINT RightHandThumb1
									{
										OFFSET -4.49526 0 1.86793
										CHANNELS 3 Yrotation Xrotation Zrotation
										JOINT RightHandThumb2
										{
											OFFSET -3 0 1
											CHANNELS 3 Yrotation Xrotation Zrotation
											JOINT RightHandThumb3
											{
												OFFSET -2.1 0 0
												CHANNELS 3 Yrotation Xrotation Zrotation
												JOINT RightHandThumb4
												{
													OFFSET -1.305 0 0
													CHANNELS 3 Yrotation Xrotation Zrotation
													End Site
													{
														OFFSET -0 0 0
													}
												}
											}
										}
									}
									JOINT RightHandIndex1
									{
										OFFSET -9.23757 0 2.80764
										CHANNELS 3 Yrotation Xrotation Zrotation
										JOINT RightHandIndex2
										{
											OFFSET -3.5 0 0
											CHANNELS 3 Yrotation Xrotation Zrotation
											JOINT RightHandIndex3
											{
												OFFSET -2.45 0 0
												CHANNELS 3 Yrotation Xrotation Zrotation
												JOINT RightHandIndex4
												{
													OFFSET -1.5225 0 0
													CHANNELS 3 Yrotation Xrotation Zrotation
													End Site
													{
														OFFSET -0 0 0
													}
												}
											}
										}
									}
									JOINT RightHandMiddle1
									{
										OFFSET -8.70766 0 0.787911
										CHANNELS 3 Yrotation Xrotation Zrotation
										JOINT RightHandMiddle2
										{
											OFFSET -4.6 0 0
											CHANNELS 3 Yrotation Xrotation Zrotation
											JOINT RightHandMiddle3
											{
												OFFSET -3.22 0 0
												CHANNELS 3 Yrotation Xrotation Zrotation
												JOINT RightHandMiddle4
												{
													OFFSET -2.001 0 0
													CHANNELS 3 Yrotation Xrotation Zrotation
													End Site
													{
														OFFSET -0 0 0
													}
												}
											}
										}
									}
									JOINT RightHandRing1
									{
										OFFSET -7.87775 0 -1.23182
										CHANNELS 3 Yrotation Xrotation Zrotation
										JOINT RightHandRing2
										{
											OFFSET -3.75 0 0
											CHANNELS 3 Yrotation Xrotation Zrotation
											JOINT RightHandRing3
											{
												OFFSET -2.625 0 0
												CHANNELS 3 Yrotation Xrotation Zrotation
												JOINT RightHandRing4
												{
													OFFSET -1.63125 0 0
													CHANNELS 3 Yrotation Xrotation Zrotation
													End Site
													{
														OFFSET -0 0 0
													}
												}
											}
										}
									}
									JOINT RightHandPinky1
									{
										OFFSET -6.74784 0 -3.25155
										CHANNELS 3 Yrotation Xrotation Zrotation
										JOINT RightHandPinky2
										{
											OFFSET -2.875 0 0
											CHANNELS 3 Yrotation Xrotation Zrotation
											JOINT RightHandPinky3
											{
												OFFSET -2.0125 0 0
												CHANNELS 3 Yrotation Xrotation Zrotation
												JOINT RightHandPinky4
												{
													OFFSET -1.25062 0 0
													CHANNELS 3 Yrotation Xrotation Zrotation
													End Site
													{
														OFFSET -0 0 0
													}
												}
											}
										}
									}
								}
							}
						}
					}
				}
			}
		}
	}
	JOINT LeftUpLeg
	{
		OFFSET 9.95155 -3.31718 3
		CHANNELS 3 Yrotation Xrotation Zrotation
		JOINT LeftLeg
		{
			OFFSET -0 -43.2932 2.32203
			CHANNELS 3 Yrotation Xrotation Zrotation
			JOINT LeftFoot
			{
				OFFSET -0 -34.5003 -2.32203
				CHANNELS 3 Yrotation Xrotation Zrotation
				JOINT LeftToeBase
				{
					OFFSET -0 -8.48975 8.93072
					CHANNELS 3 Yrotation Xrotation Zrotation
					End Site
					{
						OFFSET 0 0 5
					}
				}
			}
		}
	}
	JOINT RightUpLeg
	{
		OFFSET -9.95155 -3.31718 3
		CHANNELS 3 Yrotation Xrotation Zrotation
		JOINT RightLeg
		{
			OFFSET -0 -43.2932 2.32203
			CHANNELS 3 Yrotation Xrotation Zrotation
			JOINT RightFoot
			{
				OFFSET -0 -34.5003 -2.32203
				CHANNELS 3 Yrotation Xrotation Zrotation
				JOINT RightToeBase
				{
					OFFSET -0 -8.48975 8.93072
					CHANNELS 3 Yrotation Xrotation Zrotation
					End Site
					{
						OFFSET 0 0 5
					}
				}
			}
		}
	}
}
MOTION
Frames: 4
Frame Time: 0.0047619
0 90.430801 0 0 0 0 0 0 0 0 0 0 0 0 0 0 0 0 0 0 0 0 0 0 0 0 0 0 0 0 0 0 0 0 0 0 0 0 0 0 0 0 0 0 0 0 0 0 0 0 0 0 0 0 0 0 0 0 0 0 0 0 0 0 0 0 0 0 0 0 0 0 0 0 0 0 0 0 0 0 0 0 0 0 0 0 0 0 0 0 0 0 0 0 0 0 0 0 0 0 0 0 0 0 0 0 0 0 0 0 0 0 0 0 0 0 0 0 0 0 0 0 0 0 0 0 0 0 0 0 0 0 0 0 0 0 0 0 0 0 0 0 0 0 0 0 0 0 0 0 0 0 0 0 0 0 0 0 0 0 0 0 0 0 0 0 0 0 0 0 0 0 0 0 0 0 0 0 0 0 0 0 0 0 0 0 0 0 0 0 0 0
-19.825240 89.824078 22.002780 -1.713335 -0.205506 2.239899 1.354482 -0.117777 -1.103162 1.188097 -0.223185 -0.708235 0.569777 -0.261633 -0.310753 0.371215 -0.303140 -0.046082 3.168054 4.317332 -0.615129 1.317516 -5.550982 2.426304 6.637281 -2.508326 11.415887 -16.846311 3.297197 -5.075822 -9.486985 -3.634043 0.182054 20.829399 2.573204 -25.987000 -20.067170 -2.407044 1.399228 -23.086284 -2.720502 1.678890 -50.013460 0.027000 -11.059024 0.000006 -0.000014 8.057558 0.000006 -0.000014 8.057558 -0.000001 -0.000012 6.446042 -0.000000 -0.000005 3.223024 0.000002 -0.000000 12.500001 0.000002 -0.000000 12.500001 -0.000000 -0.000000 9.999999 0.000003 0.000001 5.000002 0.000002 -0.000000 12.500001 0.000002 -0.000000 12.500001 -0.000000 -0.000000 9.999999 0.000003 0.000001 5.000002 0.000002 -0.000016 9.247967 0.000002 -0.000016 9.247967 0.000006 -0.000014 7.398372 0.000010 -0.000005 3.699190 -140.593149 -0.159280 -179.555235 -10.140116 -1.785059 -10.504171 17.616300 0.484849 1.266175 3.972252 0.599327 -0.290705 -10.808391 4.202610 35.411445 7.941822 -5.459324 2.984657 9.114476 -6.312046 3.368040 -41.069628 12.112197 2.732315 -0.000001 -0.000001 -12.499998 -0.000001 -0.000001 -12.499998 0.000001 -0.000001 -10.000003 -0.000007 0.000003 -4.999995 -0.000017 0.000028 15.024041 -0.000017 0.000028 15.024041 -0.000025 0.000017 12.019235 -0.000012 0.000005 6.009606 -0.000014 0.000018 0.991113 -0.000014 0.000018 0.991113 -0.000009 0.000009 0.792889 -0.000004 0.000007 0.396446 0.000011 -0.000017 -3.349015 0.000011 -0.000017 -3.349015 0.000011 -0.000012 -2.679213 0.000010 -0.000007 -1.339607 -20.067170 -2.407044 1.399228 6.709297 0.550023 6.332483 0.000000 0.593390 0.000000 4.833330 6.359959 -3.197203 0.000000 -8.955494 0.000000 -6.139423 6.959855 -5.973212 0.000000 -3.147322 0.000000 -20.302665 -2.586512 3.582880 0.000000 -2.890714 0.000000
-19.825436 89.825854 22.007739 -1.717790 -0.205105 2.243840 1.353797 -0.110435 -1.111449 1.187636 -0.226154 -0.714882 0.563385 -0.249663 -0.313870 0.364914 -0.308853 -0.052083 3.183340 4.297400 -0.607558 1.323511 -5.552468 2.455456 6.626088 -2.542168 11.430696 -16.799822 3.314802 -5.083692 -9.509880 -3.665884 0.190315 20.852006 2.616550 -25.967104 -20.069618 -2.418867 1.401881 -23.089158 -2.733983 1.682309 -50.051782 0.019162 -11.085348 0.000007 -0.000004 8.060476 0.000007 -0.000004 8.060476 -0.000005 -0.000002 6.448378 0.000009 -0.000001 3.224192 0.000007 -0.000001 12.499999 0.000007 -0.000001 12.499999 -0.000003 -0.000000 9.999997 -0.000002 0.000000 5.000002 0.000007 -0.000001 12.499999 0.000007 -0.000001 12.499999 -0.000003 -0.000000 9.999997 -0.000002 0.000000 5.000002 0.000005 -0.000007 9.186278 0.000005 -0.000007 9.186278 0.000001 -0.000006 7.349022 0.000003 -0.000002 3.674514 -140.593773 -0.159275 -179.555241 -10.099192 -1.796941 -10.486205 17.550917 0.524704 1.281693 4.008611 0.632878 -0.296769 -10.812445 4.153342 35.415959 7.938490 -5.466209 2.983888 9.110701 -6.319992 3.367128 -41.157036 12.083156 2.672172 0.000000 -0.000003 -12.500000 0.000000 -0.000003 -12.500000 -0.000003 -0.000001 -10.000001 0.000001 0.000003 -5.000003 -0.000009 0.000009 14.889921 -0.000009 0.000009 14.889921 -0.000008 0.000007 11.911938 -0.000003 0.000002 5.955967 -0.000002 0.000001 1.000461 -0.000002 0.000001 1.000461 -0.000000 0.000003 0.800368 -0.000006 -0.000000 0.400186 0.000005 -0.000005 -3.334240 0.000005 -0.000005 -3.334240 0.000006 -0.000004 -2.667393 -0.000001 -0.000002 -1.333698 -20.069618 -2.418867 1.401881 6.695187 0.551357 6.326691 0.000000 0.604435 0.000000 4.863362 6.350898 -3.178566 0.000000 -8.897324 0.000000 -6.134573 6.962076 -5.974327 0.000000 -3.146390 0.000000 -20.303784 -2.595668 3.544347 0.000000 -2.877933 0.000000
-19.824199 89.825439 22.010045 -1.716956 -0.204720 2.242616 1.353250 -0.103060 -1.114880 1.187263 -0.218773 -0.716574 0.562398 -0.251152 -0.313602 0.363916 -0.310137 -0.050390 3.161458 4.298106 -0.604672 1.312966 -5.600345 2.456366 6.632053 -2.504499 11.435519 -16.783487 3.251531 -5.078785 -9.510635 -3.670310 0.191571 20.846892 2.630079 -25.969465 -20.069618 -2.418867 1.401881 -23.089158 -2.733983 1.682309 -50.051782 0.019162 -11.085348 0.000007 -0.000004 8.060476 0.000007 -0.000004 8.060476 -0.000005 -0.000002 6.448378 0.000009 -0.000001 3.224192 0.000007 -0.000001 12.499999 0.000007 -0.000001 12.499999 -0.000003 -0.000000 9.999997 -0.000002 0.000000 5.000002 0.000007 -0.000001 12.499999 0.000007 -0.000001 12.499999 -0.000003 -0.000000 9.999997 -0.000002 0.000000 5.000002 0.000005 -0.000007 9.186278 0.000005 -0.000007 9.186278 0.000001 -0.000006 7.349022 0.000003 -0.000002 3.674514 -140.593773 -0.159275 -179.555241 -10.106883 -1.784778 -10.479284 17.536553 0.483030 1.286378 4.009154 0.619342 -0.301473 -10.800002 4.199877 35.410376 7.938490 -5.466209 2.983888 9.110701 -6.319992 3.367128 -41.157036 12.083156 2.672172 0.000000 -0.000003 -12.500000 0.000000 -0.000003 -12.500000 -0.000003 -0.000001 -10.000001 0.000001 0.000003 -5.000003 -0.000009 0.000009 14.889921 -0.000009 0.000009 14.889921 -0.000008 0.000007 11.911938 -0.000003 0.000002 5.955967 -0.000002 0.000001 1.000461 -0.000002 0.000001 1.000461 -0.000000 0.000003 0.800368 -0.000006 -0.000000 0.400186 0.000005 -0.000005 -3.334240 0.000005 -0.000005 -3.334240 0.000006 -0.000004 -2.667393 -0.000001 -0.000002 -1.333698 -20.069618 -2.418867 1.401881 6.701480 0.551968 6.326448 0.000000 0.606495 0.000000 4.868530 6.354147 -3.183302 0.000000 -8.908000 0.000000 -6.134208 6.960992 -5.976014 0.000000 -3.146129 0.000000 -20.307236 -2.564014 3.592139 0.000000 -2.921618 0.000000
